<svg width="50" height="50" viewBox="0 0 50 50" fill="none" xmlns="http://www.w3.org/2000/svg">
<path fill-rule="evenodd" clip-rule="evenodd" d="M22.8516 0C24.2839 0 25.7161 0 27.1484 0C36.94 1.22469 43.9225 6.30281 48.0957 15.2344C49.1012 17.6938 49.7359 20.2328 50 22.8516C50 24.2839 50 25.7161 50 27.1484C49.0175 35.7274 44.8508 42.2541 37.5 46.7285C34.2666 48.5452 30.8161 49.6357 27.1484 50C25.7161 50 24.2839 50 22.8516 50C13.8907 48.9153 7.2013 44.4557 2.7832 36.6211C1.2684 33.6241 0.34066 30.4666 0 27.1484C0 25.7161 0 24.2839 0 22.8516C1.22469 13.06 6.30281 6.07754 15.2344 1.9043C17.6938 0.898821 20.2328 0.264056 22.8516 0ZM23.7305 1.85547C32.804 1.76078 39.8189 5.47172 44.7754 12.9883C49.1171 20.6964 49.2473 28.4764 45.166 36.3281C43.8676 38.5396 42.2726 40.5252 40.3809 42.2852C37.5382 40.7417 34.6573 39.2605 31.7383 37.8418C31.3584 37.5883 31.0817 37.2465 30.9082 36.8164C30.7568 35.7146 30.7243 34.6077 30.8105 33.4961C32.0493 31.8979 33.0097 30.1401 33.6914 28.2227C34.5914 27.7576 35.1936 27.0415 35.498 26.0742C35.6529 24.5487 35.6854 23.0188 35.5957 21.4844C35.5194 20.864 35.2915 20.3105 34.9121 19.8242C36.0738 10.5042 31.9886 6.35384 22.6562 7.37305C19.9759 7.61378 17.8437 8.80193 16.2598 10.9375C15.647 11.9622 15.2889 13.0689 15.1855 14.2578C15.153 16.1133 15.1204 17.9688 15.0879 19.8242C14.7085 20.3105 14.4806 20.864 14.4043 21.4844C14.3392 22.7864 14.3392 24.0886 14.4043 25.3906C14.484 26.3312 14.8746 27.1125 15.5762 27.7344C16.1762 29.7806 17.0877 31.6686 18.3105 33.3984C18.3757 34.4727 18.3757 35.5469 18.3105 36.6211C18.2234 36.9582 18.0607 37.2512 17.8223 37.5C15.0554 39.0625 12.2884 40.625 9.52148 42.1875C2.7523 35.621 0.50621 27.7434 2.7832 18.5547C5.68117 9.79726 11.622 4.37733 20.6055 2.29492C21.657 2.11486 22.6987 1.96838 23.7305 1.85547Z" fill="#2C3E50"/>
</svg>
