<svg width="50" height="50" viewBox="0 0 50 50" fill="none" xmlns="http://www.w3.org/2000/svg">
<g clip-path="url(#clip0_652_2)">
<path fill-rule="evenodd" clip-rule="evenodd" d="M6.88477 -0.0488281C18.3105 -0.0488281 29.7363 -0.0488281 41.1621 -0.0488281C38.87 0.53413 37.3889 1.96643 36.7188 4.24805C36.5742 9.9084 36.5254 15.5725 36.5723 21.2402C39.9577 21.2402 43.3431 21.2402 46.7285 21.2402C43.3598 21.3377 39.9743 21.3703 36.5723 21.3379C36.5723 30.8757 36.5723 40.4134 36.5723 49.9512C36.5071 49.9512 36.4421 49.9512 36.377 49.9512C30.8988 46.2509 25.3976 42.5725 19.873 38.916C14.3485 42.5725 8.84723 46.2509 3.36914 49.9512C3.30403 49.9512 3.23894 49.9512 3.17383 49.9512C3.15755 34.554 3.17383 19.1568 3.22266 3.75977C3.70262 1.76632 4.92332 0.49679 6.88477 -0.0488281Z" fill="#2C3E50"/>
<path fill-rule="evenodd" clip-rule="evenodd" d="M41.1621 -0.0488281C41.8132 -0.0488281 42.4642 -0.0488281 43.1152 -0.0488281C44.5819 0.457371 45.6725 1.40138 46.3867 2.7832C46.5242 3.13056 46.6219 3.48862 46.6797 3.85742C46.7285 9.6516 46.7448 15.4459 46.7285 21.2402C43.3431 21.2402 39.9577 21.2402 36.5723 21.2402C36.5254 15.5725 36.5742 9.9084 36.7188 4.24805C37.3889 1.96643 38.87 0.53413 41.1621 -0.0488281Z" fill="#1E2935"/>
</g>
<defs>
<clipPath id="clip0_652_2">
<rect width="50" height="50" fill="white"/>
</clipPath>
</defs>
</svg>
