<svg width="50" height="50" viewBox="0 0 50 50" fill="none" xmlns="http://www.w3.org/2000/svg">
<path fill-rule="evenodd" clip-rule="evenodd" d="M38.0198 0.00462541C38.3065 -0.0167921 38.5754 0.0361691 38.8262 0.163509C40.5345 1.21384 42.2624 2.23775 44.0099 3.23526C44.3891 3.49073 44.5235 3.82616 44.4131 4.24152C39.7053 10.8683 34.9248 17.4532 30.0714 23.996C32.5712 24.6387 35.0671 25.2919 37.559 25.9556C37.8308 24.9819 38.4836 24.3286 39.5173 23.996C42.5507 23.9254 45.5842 23.9254 48.6176 23.996C49.4026 24.2564 49.8441 24.7683 49.9424 25.5319C50.0192 32.6287 50.0192 39.7255 49.9424 46.8223C49.793 47.8424 49.1594 48.3897 48.0417 48.4641C45.2387 48.5348 42.4355 48.5348 39.6325 48.4641C39.0902 48.4618 38.6294 48.2852 38.2502 47.9345C34.2364 48.0768 30.2238 48.2709 26.2124 48.5171C25.1082 48.3788 24.0331 48.1316 22.987 47.7756C21.6079 48.9006 20.0911 49.0948 18.4368 48.3582C17.9568 48.0581 17.5536 47.6874 17.2273 47.246C16.4866 47.8321 15.6226 48.1146 14.6354 48.0934C13.5793 48.0846 12.6002 47.8375 11.698 47.3519C9.44501 48.2201 7.19873 49.1027 4.95913 50C4.88233 48.2346 4.80554 46.4693 4.72874 44.7039C2.47871 44.9128 0.961989 44.0301 0.178578 42.0558C-0.185193 40.6791 0.00680057 39.3728 0.754548 38.1367C3.28882 34.7472 5.82308 31.3577 8.35735 27.9681C9.11337 27.1672 9.97732 26.4787 10.9492 25.9027C13.9338 24.4345 17.044 23.234 20.2799 22.3013C25.881 15.1608 31.4679 8.01111 37.0407 0.852005C37.2823 0.470387 37.6088 0.187924 38.0198 0.00462541ZM38.5958 2.75861C39.4373 3.28716 40.282 3.81677 41.13 4.34744C41.2548 4.43907 41.2739 4.54499 41.1876 4.66521C33.3324 15.3656 25.3648 25.9931 17.2849 36.5479C15.5199 36.6714 13.7535 36.689 11.986 36.6008C20.881 25.333 29.7509 14.0523 38.5958 2.75861ZM17.6305 25.5319C17.7485 25.574 17.7678 25.6445 17.6881 25.7438C14.7666 29.4716 11.8677 33.2143 8.99092 36.9715C6.81114 37.1929 5.48641 38.2874 5.01672 40.2551C4.92392 40.8466 4.94313 41.4292 5.07432 42.0029C4.46643 42.5918 3.81367 42.6272 3.11602 42.1088C2.25528 41.2246 2.19769 40.289 2.94323 39.3018C5.36231 36.0182 7.78138 32.7346 10.2005 29.4511C10.9878 28.6574 11.8901 28.0043 12.9075 27.4915C14.4649 26.7749 16.0392 26.1218 17.6305 25.5319ZM40.0933 25.6378C42.7046 25.6202 45.3157 25.6378 47.9265 25.6908C47.9841 25.7438 48.0417 25.7967 48.0993 25.8497C48.1761 32.4875 48.1761 39.1253 48.0993 45.7631C48.0417 45.8161 47.9841 45.869 47.9265 45.922C45.3154 45.9926 42.7044 45.9926 40.0933 45.922C40.0357 45.869 39.9781 45.8161 39.9205 45.7631C39.8437 39.1253 39.8437 32.4875 39.9205 25.8497C40.0031 25.7921 40.0607 25.7214 40.0933 25.6378ZM28.3435 26.1675C31.2372 26.8591 34.117 27.6006 36.9831 28.3918C37.0982 34.2171 37.1366 40.0429 37.0982 45.869C33.3726 45.9715 29.6481 46.0597 25.9244 46.1338C23.9285 45.889 22.3926 45.0064 21.3167 43.4858C17.208 43.4505 13.0995 43.4151 8.99092 43.3798C8.04183 43.2483 7.52346 42.7363 7.4358 41.844C7.32947 41.1755 7.44467 40.54 7.78138 39.9374C7.99714 39.7034 8.24676 39.5092 8.53014 39.3548C12.9789 39.2161 17.4331 39.1455 21.8926 39.143C24.0457 38.646 25.332 37.3926 25.7516 35.3827C26.0146 33.7111 25.8802 32.0693 25.3485 30.4573C26.4634 29.0966 27.4618 27.6667 28.3435 26.1675ZM23.1598 32.9465C23.327 33.1952 23.4038 33.4776 23.3902 33.7939C23.4082 34.6815 23.1586 35.4936 22.6414 36.2301C21.947 36.729 21.1983 36.8349 20.3951 36.5479C21.3644 35.3749 22.2859 34.1745 23.1598 32.9465ZM43.6643 42.5854C44.2741 42.4926 44.6581 42.7222 44.8162 43.2739C44.5103 44.0017 44.0303 44.1253 43.3763 43.6447C43.1586 43.2294 43.2546 42.8763 43.6643 42.5854ZM7.72378 45.1276C8.53106 45.11 9.33742 45.1276 10.1429 45.1805C10.1955 45.2244 10.234 45.2773 10.2581 45.3394C9.42946 45.7173 8.60386 46.1057 7.78138 46.5046C7.7239 46.0469 7.70466 45.5879 7.72378 45.1276ZM13.0227 45.1276C13.9834 45.11 14.9433 45.1276 15.9026 45.1805C15.6225 45.7564 15.1426 46.0212 14.4626 45.9749C13.7781 45.9701 13.2982 45.6876 13.0227 45.1276ZM19.128 45.1276C19.2861 45.1109 19.4398 45.1286 19.5888 45.1805C19.7501 45.6911 20.0957 46.0441 20.6255 46.2398C20.3308 46.4856 20.0236 46.5209 19.704 46.3457C19.3692 45.995 19.1772 45.589 19.128 45.1276Z" fill="#2C3E50"/>
</svg>
