<svg width="30" height="30" viewBox="0 0 30 30" fill="none" xmlns="http://www.w3.org/2000/svg">
<g clip-path="url(#clip0_651_14)">
<path fill-rule="evenodd" clip-rule="evenodd" d="M-0.0150146 11.3176C-0.0150146 10.7765 -0.0150146 10.2355 -0.0150146 9.69438C0.307566 6.45669 1.76757 3.87654 4.36499 1.9539C7.0256 0.146754 9.92558 -0.384309 13.065 0.36071C15.9333 1.16154 18.1083 2.84992 19.59 5.42584C21.0825 8.29327 21.2824 11.2492 20.19 14.2936C19.0059 17.2035 16.9509 19.2225 14.025 20.3507C10.9983 21.383 8.07827 21.1426 5.26499 19.6292C2.13957 17.7422 0.379572 14.9716 -0.0150146 11.3176ZM9.88499 2.78055C13.0781 2.699 15.5031 4.01163 17.16 6.71843C18.3157 8.91324 18.4457 11.1677 17.55 13.482C16.4039 16.0327 14.4589 17.5808 11.715 18.1262C8.8487 18.5152 6.45371 17.6384 4.52999 15.496C2.85181 13.3914 2.34181 11.0267 2.99999 8.40179C3.9506 5.44526 5.93561 3.61661 8.95499 2.91582C9.26831 2.86289 9.5783 2.8178 9.88499 2.78055Z" fill="#9EB0C3"/>
<path fill-rule="evenodd" clip-rule="evenodd" d="M9.97499 4.58418C12.3906 4.50911 14.2456 5.48105 15.54 7.50001C16.0117 8.32347 16.2768 9.21025 16.335 10.1603C16.3148 10.5716 16.1148 10.7019 15.735 10.5511C15.7 10.516 15.665 10.481 15.63 10.4459C15.5061 8.52785 14.6411 7.05993 13.035 6.04209C11.7636 5.3294 10.4236 5.15904 9.01499 5.53107C8.56784 5.67749 8.13284 5.85283 7.70999 6.05712C7.36019 5.96733 7.2602 5.75691 7.40999 5.42586C8.20076 4.94297 9.05576 4.66239 9.97499 4.58418Z" fill="#9EB0C3"/>
<path fill-rule="evenodd" clip-rule="evenodd" d="M19.545 17.2094C21.9329 19.3564 24.3079 21.5208 26.67 23.7024C26.69 23.7325 26.69 23.7625 26.67 23.7926C25.6696 24.8 24.6646 25.802 23.655 26.7986C21.4853 24.4391 19.3203 22.0744 17.16 19.7044C17.1375 19.6703 17.1425 19.6402 17.175 19.6142C18.0868 18.931 18.8768 18.1294 19.545 17.2094Z" fill="#9EB0C3"/>
<path fill-rule="evenodd" clip-rule="evenodd" d="M29.985 27.3397C29.985 27.5902 29.985 27.8407 29.985 28.0912C29.7162 29.132 29.0562 29.7633 28.005 29.985C27.745 29.985 27.485 29.985 27.225 29.985C26.8056 29.9002 26.4256 29.7248 26.085 29.4589C25.414 28.7565 24.754 28.0451 24.105 27.3246C25.135 26.2926 26.165 25.2605 27.195 24.2284C27.215 24.2084 27.235 24.2084 27.255 24.2284C27.99 24.9048 28.725 25.5812 29.46 26.2575C29.7244 26.5769 29.8994 26.9376 29.985 27.3397Z" fill="#9EB0C3"/>
</g>
<defs>
<clipPath id="clip0_651_14">
<rect width="30" height="30" fill="white"/>
</clipPath>
</defs>
</svg>
